<?xml version='1.0' encoding='UTF-8'?>
<svg width="53mm" height="53mm" version="1.1" viewBox="0 0 53 53" fill_color="#1f2937" back_color="white" xmlns="http://www.w3.org/2000/svg"><path d="M2,2H3V3H2zM3,2H4V3H3zM4,2H5V3H4zM5,2H6V3H5zM6,2H7V3H6zM7,2H8V3H7zM8,2H9V3H8zM10,2H11V3H10zM12,2H13V3H12zM14,2H15V3H14zM16,2H17V3H16zM17,2H18V3H17zM19,2H20V3H19zM22,2H23V3H22zM23,2H24V3H23zM28,2H29V3H28zM30,2H31V3H30zM32,2H33V3H32zM37,2H38V3H37zM38,2H39V3H38zM42,2H43V3H42zM44,2H45V3H44zM45,2H46V3H45zM46,2H47V3H46zM47,2H48V3H47zM48,2H49V3H48zM49,2H50V3H49zM50,2H51V3H50zM2,3H3V4H2zM8,3H9V4H8zM10,3H11V4H10zM11,3H12V4H11zM14,3H15V4H14zM15,3H16V4H15zM16,3H17V4H16zM20,3H21V4H20zM21,3H22V4H21zM22,3H23V4H22zM23,3H24V4H23zM24,3H25V4H24zM25,3H26V4H25zM27,3H28V4H27zM28,3H29V4H28zM33,3H34V4H33zM34,3H35V4H34zM36,3H37V4H36zM37,3H38V4H37zM38,3H39V4H38zM40,3H41V4H40zM41,3H42V4H41zM42,3H43V4H42zM44,3H45V4H44zM50,3H51V4H50zM2,4H3V5H2zM4,4H5V5H4zM5,4H6V5H5zM6,4H7V5H6zM8,4H9V5H8zM10,4H11V5H10zM11,4H12V5H11zM12,4H13V5H12zM14,4H15V5H14zM16,4H17V5H16zM20,4H21V5H20zM21,4H22V5H21zM22,4H23V5H22zM23,4H24V5H23zM24,4H25V5H24zM25,4H26V5H25zM26,4H27V5H26zM27,4H28V5H27zM28,4H29V5H28zM30,4H31V5H30zM32,4H33V5H32zM33,4H34V5H33zM34,4H35V5H34zM35,4H36V5H35zM36,4H37V5H36zM37,4H38V5H37zM41,4H42V5H41zM42,4H43V5H42zM44,4H45V5H44zM46,4H47V5H46zM47,4H48V5H47zM48,4H49V5H48zM50,4H51V5H50zM2,5H3V6H2zM4,5H5V6H4zM5,5H6V6H5zM6,5H7V6H6zM8,5H9V6H8zM14,5H15V6H14zM15,5H16V6H15zM17,5H18V6H17zM18,5H19V6H18zM19,5H20V6H19zM20,5H21V6H20zM21,5H22V6H21zM23,5H24V6H23zM26,5H27V6H26zM27,5H28V6H27zM29,5H30V6H29zM30,5H31V6H30zM31,5H32V6H31zM32,5H33V6H32zM33,5H34V6H33zM34,5H35V6H34zM36,5H37V6H36zM37,5H38V6H37zM38,5H39V6H38zM39,5H40V6H39zM41,5H42V6H41zM44,5H45V6H44zM46,5H47V6H46zM47,5H48V6H47zM48,5H49V6H48zM50,5H51V6H50zM2,6H3V7H2zM4,6H5V7H4zM5,6H6V7H5zM6,6H7V7H6zM8,6H9V7H8zM12,6H13V7H12zM13,6H14V7H13zM16,6H17V7H16zM17,6H18V7H17zM20,6H21V7H20zM22,6H23V7H22zM24,6H25V7H24zM25,6H26V7H25zM26,6H27V7H26zM27,6H28V7H27zM28,6H29V7H28zM29,6H30V7H29zM30,6H31V7H30zM31,6H32V7H31zM32,6H33V7H32zM33,6H34V7H33zM38,6H39V7H38zM39,6H40V7H39zM44,6H45V7H44zM46,6H47V7H46zM47,6H48V7H47zM48,6H49V7H48zM50,6H51V7H50zM2,7H3V8H2zM8,7H9V8H8zM10,7H11V8H10zM12,7H13V8H12zM14,7H15V8H14zM16,7H17V8H16zM19,7H20V8H19zM21,7H22V8H21zM24,7H25V8H24zM28,7H29V8H28zM30,7H31V8H30zM32,7H33V8H32zM33,7H34V8H33zM34,7H35V8H34zM35,7H36V8H35zM36,7H37V8H36zM38,7H39V8H38zM40,7H41V8H40zM44,7H45V8H44zM50,7H51V8H50zM2,8H3V9H2zM3,8H4V9H3zM4,8H5V9H4zM5,8H6V9H5zM6,8H7V9H6zM7,8H8V9H7zM8,8H9V9H8zM10,8H11V9H10zM12,8H13V9H12zM14,8H15V9H14zM16,8H17V9H16zM18,8H19V9H18zM20,8H21V9H20zM22,8H23V9H22zM24,8H25V9H24zM26,8H27V9H26zM28,8H29V9H28zM30,8H31V9H30zM32,8H33V9H32zM34,8H35V9H34zM36,8H37V9H36zM38,8H39V9H38zM40,8H41V9H40zM42,8H43V9H42zM44,8H45V9H44zM45,8H46V9H45zM46,8H47V9H46zM47,8H48V9H47zM48,8H49V9H48zM49,8H50V9H49zM50,8H51V9H50zM10,9H11V10H10zM11,9H12V10H11zM12,9H13V10H12zM13,9H14V10H13zM15,9H16V10H15zM16,9H17V10H16zM17,9H18V10H17zM18,9H19V10H18zM19,9H20V10H19zM20,9H21V10H20zM21,9H22V10H21zM22,9H23V10H22zM24,9H25V10H24zM28,9H29V10H28zM30,9H31V10H30zM37,9H38V10H37zM38,9H39V10H38zM39,9H40V10H39zM41,9H42V10H41zM4,10H5V11H4zM5,10H6V11H5zM6,10H7V11H6zM8,10H9V11H8zM10,10H11V11H10zM12,10H13V11H12zM14,10H15V11H14zM16,10H17V11H16zM17,10H18V11H17zM20,10H21V11H20zM21,10H22V11H21zM23,10H24V11H23zM24,10H25V11H24zM25,10H26V11H25zM26,10H27V11H26zM27,10H28V11H27zM28,10H29V11H28zM32,10H33V11H32zM34,10H35V11H34zM35,10H36V11H35zM38,10H39V11H38zM39,10H40V11H39zM41,10H42V11H41zM42,10H43V11H42zM43,10H44V11H43zM44,10H45V11H44zM45,10H46V11H45zM48,10H49V11H48zM49,10H50V11H49zM50,10H51V11H50zM2,11H3V12H2zM3,11H4V12H3zM4,11H5V12H4zM5,11H6V12H5zM7,11H8V12H7zM9,11H10V12H9zM10,11H11V12H10zM11,11H12V12H11zM12,11H13V12H12zM14,11H15V12H14zM16,11H17V12H16zM17,11H18V12H17zM18,11H19V12H18zM19,11H20V12H19zM20,11H21V12H20zM21,11H22V12H21zM25,11H26V12H25zM26,11H27V12H26zM31,11H32V12H31zM34,11H35V12H34zM37,11H38V12H37zM38,11H39V12H38zM39,11H40V12H39zM44,11H45V12H44zM45,11H46V12H45zM47,11H48V12H47zM2,12H3V13H2zM7,12H8V13H7zM8,12H9V13H8zM9,12H10V13H9zM10,12H11V13H10zM11,12H12V13H11zM12,12H13V13H12zM14,12H15V13H14zM15,12H16V13H15zM17,12H18V13H17zM19,12H20V13H19zM21,12H22V13H21zM22,12H23V13H22zM24,12H25V13H24zM25,12H26V13H25zM28,12H29V13H28zM36,12H37V13H36zM38,12H39V13H38zM39,12H40V13H39zM40,12H41V13H40zM42,12H43V13H42zM45,12H46V13H45zM47,12H48V13H47zM48,12H49V13H48zM49,12H50V13H49zM50,12H51V13H50zM3,13H4V14H3zM4,13H5V14H4zM5,13H6V14H5zM9,13H10V14H9zM10,13H11V14H10zM11,13H12V14H11zM13,13H14V14H13zM14,13H15V14H14zM15,13H16V14H15zM16,13H17V14H16zM19,13H20V14H19zM23,13H24V14H23zM24,13H25V14H24zM25,13H26V14H25zM28,13H29V14H28zM29,13H30V14H29zM30,13H31V14H30zM32,13H33V14H32zM34,13H35V14H34zM37,13H38V14H37zM39,13H40V14H39zM41,13H42V14H41zM46,13H47V14H46zM49,13H50V14H49zM2,14H3V15H2zM8,14H9V15H8zM10,14H11V15H10zM11,14H12V15H11zM13,14H14V15H13zM19,14H20V15H19zM21,14H22V15H21zM22,14H23V15H22zM24,14H25V15H24zM26,14H27V15H26zM29,14H30V15H29zM30,14H31V15H30zM31,14H32V15H31zM32,14H33V15H32zM33,14H34V15H33zM34,14H35V15H34zM38,14H39V15H38zM39,14H40V15H39zM40,14H41V15H40zM41,14H42V15H41zM42,14H43V15H42zM43,14H44V15H43zM44,14H45V15H44zM45,14H46V15H45zM47,14H48V15H47zM48,14H49V15H48zM50,14H51V15H50zM3,15H4V16H3zM5,15H6V16H5zM7,15H8V16H7zM9,15H10V16H9zM12,15H13V16H12zM15,15H16V16H15zM19,15H20V16H19zM20,15H21V16H20zM25,15H26V16H25zM27,15H28V16H27zM28,15H29V16H28zM29,15H30V16H29zM30,15H31V16H30zM31,15H32V16H31zM33,15H34V16H33zM34,15H35V16H34zM35,15H36V16H35zM38,15H39V16H38zM41,15H42V16H41zM43,15H44V16H43zM44,15H45V16H44zM45,15H46V16H45zM48,15H49V16H48zM49,15H50V16H49zM4,16H5V17H4zM5,16H6V17H5zM6,16H7V17H6zM7,16H8V17H7zM8,16H9V17H8zM9,16H10V17H9zM10,16H11V17H10zM12,16H13V17H12zM13,16H14V17H13zM16,16H17V17H16zM17,16H18V17H17zM18,16H19V17H18zM21,16H22V17H21zM23,16H24V17H23zM25,16H26V17H25zM26,16H27V17H26zM28,16H29V17H28zM30,16H31V17H30zM33,16H34V17H33zM34,16H35V17H34zM36,16H37V17H36zM37,16H38V17H37zM38,16H39V17H38zM39,16H40V17H39zM40,16H41V17H40zM41,16H42V17H41zM42,16H43V17H42zM46,16H47V17H46zM47,16H48V17H47zM48,16H49V17H48zM49,16H50V17H49zM50,16H51V17H50zM9,17H10V18H9zM11,17H12V18H11zM13,17H14V18H13zM18,17H19V18H18zM20,17H21V18H20zM21,17H22V18H21zM22,17H23V18H22zM24,17H25V18H24zM27,17H28V18H27zM31,17H32V18H31zM32,17H33V18H32zM33,17H34V18H33zM36,17H37V18H36zM37,17H38V18H37zM39,17H40V18H39zM40,17H41V18H40zM41,17H42V18H41zM42,17H43V18H42zM44,17H45V18H44zM46,17H47V18H46zM48,17H49V18H48zM50,17H51V18H50zM2,18H3V19H2zM7,18H8V19H7zM8,18H9V19H8zM10,18H11V19H10zM11,18H12V19H11zM12,18H13V19H12zM15,18H16V19H15zM17,18H18V19H17zM18,18H19V19H18zM19,18H20V19H19zM22,18H23V19H22zM24,18H25V19H24zM26,18H27V19H26zM29,18H30V19H29zM31,18H32V19H31zM32,18H33V19H32zM34,18H35V19H34zM35,18H36V19H35zM36,18H37V19H36zM37,18H38V19H37zM38,18H39V19H38zM40,18H41V19H40zM43,18H44V19H43zM44,18H45V19H44zM45,18H46V19H45zM47,18H48V19H47zM50,18H51V19H50zM4,19H5V20H4zM5,19H6V20H5zM6,19H7V20H6zM9,19H10V20H9zM11,19H12V20H11zM13,19H14V20H13zM16,19H17V20H16zM17,19H18V20H17zM18,19H19V20H18zM19,19H20V20H19zM20,19H21V20H20zM25,19H26V20H25zM26,19H27V20H26zM31,19H32V20H31zM32,19H33V20H32zM33,19H34V20H33zM36,19H37V20H36zM39,19H40V20H39zM40,19H41V20H40zM41,19H42V20H41zM44,19H45V20H44zM47,19H48V20H47zM48,19H49V20H48zM49,19H50V20H49zM2,20H3V21H2zM8,20H9V21H8zM12,20H13V21H12zM16,20H17V21H16zM17,20H18V21H17zM18,20H19V21H18zM20,20H21V21H20zM21,20H22V21H21zM23,20H24V21H23zM24,20H25V21H24zM26,20H27V21H26zM28,20H29V21H28zM32,20H33V21H32zM34,20H35V21H34zM35,20H36V21H35zM38,20H39V21H38zM43,20H44V21H43zM44,20H45V21H44zM45,20H46V21H45zM46,20H47V21H46zM47,20H48V21H47zM49,20H50V21H49zM50,20H51V21H50zM2,21H3V22H2zM4,21H5V22H4zM5,21H6V22H5zM10,21H11V22H10zM13,21H14V22H13zM14,21H15V22H14zM17,21H18V22H17zM24,21H25V22H24zM26,21H27V22H26zM27,21H28V22H27zM30,21H31V22H30zM33,21H34V22H33zM34,21H35V22H34zM35,21H36V22H35zM39,21H40V22H39zM40,21H41V22H40zM41,21H42V22H41zM44,21H45V22H44zM45,21H46V22H45zM46,21H47V22H46zM49,21H50V22H49zM50,21H51V22H50zM2,22H3V23H2zM3,22H4V23H3zM5,22H6V23H5zM6,22H7V23H6zM8,22H9V23H8zM9,22H10V23H9zM10,22H11V23H10zM11,22H12V23H11zM13,22H14V23H13zM14,22H15V23H14zM15,22H16V23H15zM17,22H18V23H17zM18,22H19V23H18zM22,22H23V23H22zM23,22H24V23H23zM24,22H25V23H24zM26,22H27V23H26zM27,22H28V23H27zM29,22H30V23H29zM30,22H31V23H30zM32,22H33V23H32zM33,22H34V23H33zM34,22H35V23H34zM35,22H36V23H35zM37,22H38V23H37zM38,22H39V23H38zM39,22H40V23H39zM40,22H41V23H40zM42,22H43V23H42zM44,22H45V23H44zM45,22H46V23H45zM48,22H49V23H48zM50,22H51V23H50zM3,23H4V24H3zM4,23H5V24H4zM5,23H6V24H5zM7,23H8V24H7zM9,23H10V24H9zM13,23H14V24H13zM15,23H16V24H15zM16,23H17V24H16zM17,23H18V24H17zM18,23H19V24H18zM19,23H20V24H19zM20,23H21V24H20zM21,23H22V24H21zM22,23H23V24H22zM24,23H25V24H24zM26,23H27V24H26zM28,23H29V24H28zM31,23H32V24H31zM38,23H39V24H38zM41,23H42V24H41zM43,23H44V24H43zM44,23H45V24H44zM47,23H48V24H47zM6,24H7V25H6zM7,24H8V25H7zM8,24H9V25H8zM9,24H10V25H9zM10,24H11V25H10zM11,24H12V25H11zM12,24H13V25H12zM13,24H14V25H13zM16,24H17V25H16zM17,24H18V25H17zM19,24H20V25H19zM20,24H21V25H20zM23,24H24V25H23zM24,24H25V25H24zM25,24H26V25H25zM26,24H27V25H26zM27,24H28V25H27zM28,24H29V25H28zM29,24H30V25H29zM31,24H32V25H31zM33,24H34V25H33zM36,24H37V25H36zM37,24H38V25H37zM38,24H39V25H38zM40,24H41V25H40zM41,24H42V25H41zM42,24H43V25H42zM43,24H44V25H43zM44,24H45V25H44zM45,24H46V25H45zM46,24H47V25H46zM47,24H48V25H47zM49,24H50V25H49zM50,24H51V25H50zM4,25H5V26H4zM6,25H7V26H6zM10,25H11V26H10zM13,25H14V26H13zM17,25H18V26H17zM19,25H20V26H19zM20,25H21V26H20zM24,25H25V26H24zM28,25H29V26H28zM31,25H32V26H31zM32,25H33V26H32zM33,25H34V26H33zM35,25H36V26H35zM37,25H38V26H37zM39,25H40V26H39zM40,25H41V26H40zM42,25H43V26H42zM46,25H47V26H46zM2,26H3V27H2zM3,26H4V27H3zM4,26H5V27H4zM5,26H6V27H5zM6,26H7V27H6zM8,26H9V27H8zM10,26H11V27H10zM12,26H13V27H12zM15,26H16V27H15zM18,26H19V27H18zM19,26H20V27H19zM20,26H21V27H20zM21,26H22V27H21zM22,26H23V27H22zM24,26H25V27H24zM26,26H27V27H26zM28,26H29V27H28zM29,26H30V27H29zM30,26H31V27H30zM31,26H32V27H31zM32,26H33V27H32zM36,26H37V27H36zM37,26H38V27H37zM38,26H39V27H38zM39,26H40V27H39zM40,26H41V27H40zM42,26H43V27H42zM44,26H45V27H44zM46,26H47V27H46zM48,26H49V27H48zM49,26H50V27H49zM50,26H51V27H50zM2,27H3V28H2zM5,27H6V28H5zM6,27H7V28H6zM10,27H11V28H10zM11,27H12V28H11zM13,27H14V28H13zM15,27H16V28H15zM19,27H20V28H19zM20,27H21V28H20zM21,27H22V28H21zM22,27H23V28H22zM23,27H24V28H23zM24,27H25V28H24zM28,27H29V28H28zM29,27H30V28H29zM32,27H33V28H32zM33,27H34V28H33zM35,27H36V28H35zM37,27H38V28H37zM39,27H40V28H39zM41,27H42V28H41zM42,27H43V28H42zM46,27H47V28H46zM47,27H48V28H47zM50,27H51V28H50zM4,28H5V29H4zM5,28H6V29H5zM6,28H7V29H6zM7,28H8V29H7zM8,28H9V29H8zM9,28H10V29H9zM10,28H11V29H10zM15,28H16V29H15zM16,28H17V29H16zM21,28H22V29H21zM22,28H23V29H22zM23,28H24V29H23zM24,28H25V29H24zM25,28H26V29H25zM26,28H27V29H26zM27,28H28V29H27zM28,28H29V29H28zM32,28H33V29H32zM35,28H36V29H35zM36,28H37V29H36zM37,28H38V29H37zM40,28H41V29H40zM41,28H42V29H41zM42,28H43V29H42zM43,28H44V29H43zM44,28H45V29H44zM45,28H46V29H45zM46,28H47V29H46zM47,28H48V29H47zM50,28H51V29H50zM4,29H5V30H4zM6,29H7V30H6zM7,29H8V30H7zM9,29H10V30H9zM11,29H12V30H11zM13,29H14V30H13zM14,29H15V30H14zM15,29H16V30H15zM18,29H19V30H18zM19,29H20V30H19zM21,29H22V30H21zM22,29H23V30H22zM23,29H24V30H23zM24,29H25V30H24zM26,29H27V30H26zM28,29H29V30H28zM29,29H30V30H29zM30,29H31V30H30zM31,29H32V30H31zM33,29H34V30H33zM34,29H35V30H34zM35,29H36V30H35zM36,29H37V30H36zM37,29H38V30H37zM39,29H40V30H39zM42,29H43V30H42zM43,29H44V30H43zM45,29H46V30H45zM47,29H48V30H47zM50,29H51V30H50zM3,30H4V31H3zM4,30H5V31H4zM5,30H6V31H5zM7,30H8V31H7zM8,30H9V31H8zM9,30H10V31H9zM13,30H14V31H13zM15,30H16V31H15zM17,30H18V31H17zM21,30H22V31H21zM24,30H25V31H24zM27,30H28V31H27zM28,30H29V31H28zM29,30H30V31H29zM32,30H33V31H32zM37,30H38V31H37zM38,30H39V31H38zM39,30H40V31H39zM41,30H42V31H41zM43,30H44V31H43zM44,30H45V31H44zM47,30H48V31H47zM48,30H49V31H48zM49,30H50V31H49zM50,30H51V31H50zM3,31H4V32H3zM6,31H7V32H6zM7,31H8V32H7zM10,31H11V32H10zM12,31H13V32H12zM14,31H15V32H14zM16,31H17V32H16zM17,31H18V32H17zM20,31H21V32H20zM21,31H22V32H21zM25,31H26V32H25zM26,31H27V32H26zM28,31H29V32H28zM31,31H32V32H31zM32,31H33V32H32zM33,31H34V32H33zM37,31H38V32H37zM38,31H39V32H38zM39,31H40V32H39zM43,31H44V32H43zM44,31H45V32H44zM45,31H46V32H45zM46,31H47V32H46zM47,31H48V32H47zM48,31H49V32H48zM49,31H50V32H49zM2,32H3V33H2zM4,32H5V33H4zM5,32H6V33H5zM7,32H8V33H7zM8,32H9V33H8zM10,32H11V33H10zM13,32H14V33H13zM17,32H18V33H17zM18,32H19V33H18zM19,32H20V33H19zM20,32H21V33H20zM21,32H22V33H21zM24,32H25V33H24zM25,32H26V33H25zM26,32H27V33H26zM28,32H29V33H28zM29,32H30V33H29zM30,32H31V33H30zM31,32H32V33H31zM36,32H37V33H36zM38,32H39V33H38zM40,32H41V33H40zM41,32H42V33H41zM42,32H43V33H42zM44,32H45V33H44zM46,32H47V33H46zM49,32H50V33H49zM50,32H51V33H50zM3,33H4V34H3zM4,33H5V34H4zM5,33H6V34H5zM6,33H7V34H6zM7,33H8V34H7zM9,33H10V34H9zM10,33H11V34H10zM15,33H16V34H15zM17,33H18V34H17zM18,33H19V34H18zM19,33H20V34H19zM20,33H21V34H20zM21,33H22V34H21zM25,33H26V34H25zM27,33H28V34H27zM30,33H31V34H30zM35,33H36V34H35zM38,33H39V34H38zM42,33H43V34H42zM45,33H46V34H45zM46,33H47V34H46zM50,33H51V34H50zM2,34H3V35H2zM4,34H5V35H4zM5,34H6V35H5zM6,34H7V35H6zM8,34H9V35H8zM9,34H10V35H9zM11,34H12V35H11zM15,34H16V35H15zM16,34H17V35H16zM18,34H19V35H18zM19,34H20V35H19zM21,34H22V35H21zM24,34H25V35H24zM29,34H30V35H29zM31,34H32V35H31zM33,34H34V35H33zM34,34H35V35H34zM36,34H37V35H36zM37,34H38V35H37zM41,34H42V35H41zM42,34H43V35H42zM43,34H44V35H43zM46,34H47V35H46zM48,34H49V35H48zM50,34H51V35H50zM2,35H3V36H2zM4,35H5V36H4zM7,35H8V36H7zM9,35H10V36H9zM10,35H11V36H10zM13,35H14V36H13zM14,35H15V36H14zM17,35H18V36H17zM19,35H20V36H19zM23,35H24V36H23zM24,35H25V36H24zM25,35H26V36H25zM26,35H27V36H26zM27,35H28V36H27zM29,35H30V36H29zM30,35H31V36H30zM31,35H32V36H31zM34,35H35V36H34zM35,35H36V36H35zM39,35H40V36H39zM45,35H46V36H45zM48,35H49V36H48zM49,35H50V36H49zM2,36H3V37H2zM4,36H5V37H4zM6,36H7V37H6zM7,36H8V37H7zM8,36H9V37H8zM10,36H11V37H10zM14,36H15V37H14zM15,36H16V37H15zM16,36H17V37H16zM17,36H18V37H17zM18,36H19V37H18zM21,36H22V37H21zM22,36H23V37H22zM25,36H26V37H25zM27,36H28V37H27zM28,36H29V37H28zM29,36H30V37H29zM32,36H33V37H32zM33,36H34V37H33zM34,36H35V37H34zM35,36H36V37H35zM36,36H37V37H36zM37,36H38V37H37zM40,36H41V37H40zM41,36H42V37H41zM43,36H44V37H43zM44,36H45V37H44zM45,36H46V37H45zM46,36H47V37H46zM48,36H49V37H48zM49,36H50V37H49zM50,36H51V37H50zM2,37H3V38H2zM3,37H4V38H3zM6,37H7V38H6zM10,37H11V38H10zM11,37H12V38H11zM15,37H16V38H15zM18,37H19V38H18zM21,37H22V38H21zM22,37H23V38H22zM26,37H27V38H26zM27,37H28V38H27zM28,37H29V38H28zM31,37H32V38H31zM33,37H34V38H33zM34,37H35V38H34zM37,37H38V38H37zM40,37H41V38H40zM42,37H43V38H42zM43,37H44V38H43zM45,37H46V38H45zM46,37H47V38H46zM47,37H48V38H47zM49,37H50V38H49zM50,37H51V38H50zM2,38H3V39H2zM3,38H4V39H3zM6,38H7V39H6zM7,38H8V39H7zM8,38H9V39H8zM9,38H10V39H9zM10,38H11V39H10zM11,38H12V39H11zM13,38H14V39H13zM15,38H16V39H15zM19,38H20V39H19zM21,38H22V39H21zM25,38H26V39H25zM26,38H27V39H26zM28,38H29V39H28zM29,38H30V39H29zM31,38H32V39H31zM32,38H33V39H32zM35,38H36V39H35zM38,38H39V39H38zM41,38H42V39H41zM43,38H44V39H43zM46,38H47V39H46zM47,38H48V39H47zM48,38H49V39H48zM49,38H50V39H49zM2,39H3V40H2zM3,39H4V40H3zM5,39H6V40H5zM6,39H7V40H6zM7,39H8V40H7zM9,39H10V40H9zM10,39H11V40H10zM11,39H12V40H11zM12,39H13V40H12zM13,39H14V40H13zM18,39H19V40H18zM19,39H20V40H19zM20,39H21V40H20zM21,39H22V40H21zM24,39H25V40H24zM27,39H28V40H27zM29,39H30V40H29zM30,39H31V40H30zM31,39H32V40H31zM32,39H33V40H32zM33,39H34V40H33zM35,39H36V40H35zM42,39H43V40H42zM43,39H44V40H43zM44,39H45V40H44zM45,39H46V40H45zM47,39H48V40H47zM49,39H50V40H49zM3,40H4V41H3zM7,40H8V41H7zM8,40H9V41H8zM15,40H16V41H15zM16,40H17V41H16zM17,40H18V41H17zM18,40H19V41H18zM21,40H22V41H21zM22,40H23V41H22zM23,40H24V41H23zM24,40H25V41H24zM28,40H29V41H28zM30,40H31V41H30zM31,40H32V41H31zM32,40H33V41H32zM34,40H35V41H34zM36,40H37V41H36zM38,40H39V41H38zM39,40H40V41H39zM40,40H41V41H40zM42,40H43V41H42zM43,40H44V41H43zM44,40H45V41H44zM49,40H50V41H49zM50,40H51V41H50zM3,41H4V42H3zM4,41H5V42H4zM5,41H6V42H5zM9,41H10V42H9zM10,41H11V42H10zM11,41H12V42H11zM14,41H15V42H14zM15,41H16V42H15zM17,41H18V42H17zM18,41H19V42H18zM19,41H20V42H19zM20,41H21V42H20zM21,41H22V42H21zM22,41H23V42H22zM24,41H25V42H24zM25,41H26V42H25zM27,41H28V42H27zM28,41H29V42H28zM29,41H30V42H29zM32,41H33V42H32zM33,41H34V42H33zM34,41H35V42H34zM35,41H36V42H35zM37,41H38V42H37zM43,41H44V42H43zM45,41H46V42H45zM47,41H48V42H47zM49,41H50V42H49zM50,41H51V42H50zM2,42H3V43H2zM3,42H4V43H3zM4,42H5V43H4zM8,42H9V43H8zM9,42H10V43H9zM12,42H13V43H12zM13,42H14V43H13zM16,42H17V43H16zM17,42H18V43H17zM18,42H19V43H18zM23,42H24V43H23zM24,42H25V43H24zM25,42H26V43H25zM26,42H27V43H26zM27,42H28V43H27zM28,42H29V43H28zM29,42H30V43H29zM30,42H31V43H30zM31,42H32V43H31zM32,42H33V43H32zM33,42H34V43H33zM37,42H38V43H37zM38,42H39V43H38zM39,42H40V43H39zM41,42H42V43H41zM42,42H43V43H42zM43,42H44V43H43zM44,42H45V43H44zM45,42H46V43H45zM46,42H47V43H46zM50,42H51V43H50zM10,43H11V44H10zM11,43H12V44H11zM12,43H13V44H12zM14,43H15V44H14zM16,43H17V44H16zM17,43H18V44H17zM19,43H20V44H19zM21,43H22V44H21zM23,43H24V44H23zM24,43H25V44H24zM28,43H29V44H28zM29,43H30V44H29zM33,43H34V44H33zM35,43H36V44H35zM37,43H38V44H37zM42,43H43V44H42zM46,43H47V44H46zM2,44H3V45H2zM3,44H4V45H3zM4,44H5V45H4zM5,44H6V45H5zM6,44H7V45H6zM7,44H8V45H7zM8,44H9V45H8zM11,44H12V45H11zM13,44H14V45H13zM14,44H15V45H14zM15,44H16V45H15zM16,44H17V45H16zM19,44H20V45H19zM21,44H22V45H21zM22,44H23V45H22zM24,44H25V45H24zM26,44H27V45H26zM28,44H29V45H28zM29,44H30V45H29zM30,44H31V45H30zM32,44H33V45H32zM33,44H34V45H33zM34,44H35V45H34zM37,44H38V45H37zM39,44H40V45H39zM42,44H43V45H42zM44,44H45V45H44zM46,44H47V45H46zM47,44H48V45H47zM49,44H50V45H49zM50,44H51V45H50zM2,45H3V46H2zM8,45H9V46H8zM11,45H12V46H11zM17,45H18V46H17zM22,45H23V46H22zM23,45H24V46H23zM24,45H25V46H24zM28,45H29V46H28zM29,45H30V46H29zM30,45H31V46H30zM31,45H32V46H31zM32,45H33V46H32zM34,45H35V46H34zM35,45H36V46H35zM37,45H38V46H37zM39,45H40V46H39zM40,45H41V46H40zM41,45H42V46H41zM42,45H43V46H42zM46,45H47V46H46zM2,46H3V47H2zM4,46H5V47H4zM5,46H6V47H5zM6,46H7V47H6zM8,46H9V47H8zM10,46H11V47H10zM11,46H12V47H11zM14,46H15V47H14zM15,46H16V47H15zM16,46H17V47H16zM21,46H22V47H21zM23,46H24V47H23zM24,46H25V47H24zM25,46H26V47H25zM26,46H27V47H26zM27,46H28V47H27zM28,46H29V47H28zM29,46H30V47H29zM30,46H31V47H30zM31,46H32V47H31zM32,46H33V47H32zM36,46H37V47H36zM37,46H38V47H37zM38,46H39V47H38zM39,46H40V47H39zM40,46H41V47H40zM41,46H42V47H41zM42,46H43V47H42zM43,46H44V47H43zM44,46H45V47H44zM45,46H46V47H45zM46,46H47V47H46zM48,46H49V47H48zM49,46H50V47H49zM2,47H3V48H2zM4,47H5V48H4zM5,47H6V48H5zM6,47H7V48H6zM8,47H9V48H8zM10,47H11V48H10zM13,47H14V48H13zM14,47H15V48H14zM15,47H16V48H15zM17,47H18V48H17zM24,47H25V48H24zM30,47H31V48H30zM32,47H33V48H32zM35,47H36V48H35zM37,47H38V48H37zM39,47H40V48H39zM41,47H42V48H41zM43,47H44V48H43zM44,47H45V48H44zM46,47H47V48H46zM47,47H48V48H47zM50,47H51V48H50zM2,48H3V49H2zM4,48H5V49H4zM5,48H6V49H5zM6,48H7V49H6zM8,48H9V49H8zM10,48H11V49H10zM11,48H12V49H11zM12,48H13V49H12zM13,48H14V49H13zM14,48H15V49H14zM17,48H18V49H17zM19,48H20V49H19zM21,48H22V49H21zM24,48H25V49H24zM26,48H27V49H26zM27,48H28V49H27zM29,48H30V49H29zM30,48H31V49H30zM32,48H33V49H32zM33,48H34V49H33zM35,48H36V49H35zM36,48H37V49H36zM38,48H39V49H38zM40,48H41V49H40zM42,48H43V49H42zM44,48H45V49H44zM45,48H46V49H45zM47,48H48V49H47zM49,48H50V49H49zM50,48H51V49H50zM2,49H3V50H2zM8,49H9V50H8zM11,49H12V50H11zM12,49H13V50H12zM13,49H14V50H13zM14,49H15V50H14zM16,49H17V50H16zM17,49H18V50H17zM19,49H20V50H19zM21,49H22V50H21zM23,49H24V50H23zM25,49H26V50H25zM26,49H27V50H26zM30,49H31V50H30zM34,49H35V50H34zM36,49H37V50H36zM39,49H40V50H39zM40,49H41V50H40zM41,49H42V50H41zM42,49H43V50H42zM44,49H45V50H44zM45,49H46V50H45zM46,49H47V50H46zM50,49H51V50H50zM2,50H3V51H2zM3,50H4V51H3zM4,50H5V51H4zM5,50H6V51H5zM6,50H7V51H6zM7,50H8V51H7zM8,50H9V51H8zM11,50H12V51H11zM12,50H13V51H12zM13,50H14V51H13zM16,50H17V51H16zM17,50H18V51H17zM21,50H22V51H21zM23,50H24V51H23zM26,50H27V51H26zM27,50H28V51H27zM28,50H29V51H28zM29,50H30V51H29zM30,50H31V51H30zM33,50H34V51H33zM36,50H37V51H36zM38,50H39V51H38zM39,50H40V51H39zM42,50H43V51H42zM43,50H44V51H43zM45,50H46V51H45zM46,50H47V51H46zM47,50H48V51H47zM48,50H49V51H48zM49,50H50V51H49zM50,50H51V51H50z" id="qr-path" fill="#000000" fill-opacity="1" fill-rule="nonzero" stroke="none" /></svg>